<?xml version="1.0" encoding="UTF-8" standalone="no"?>
<!-- Created with Inkscape (http://www.inkscape.org/) -->

<svg
   width="32"
   height="32"
   viewBox="0 0 32 32"
   version="1.1"
   id="svg5"
   inkscape:version="1.1.1 (3bf5ae0d25, 2021-09-20)"
   sodipodi:docname="BOOTSTRAPF.svg"
   xmlns:inkscape="http://www.inkscape.org/namespaces/inkscape"
   xmlns:sodipodi="http://sodipodi.sourceforge.net/DTD/sodipodi-0.dtd"
   xmlns="http://www.w3.org/2000/svg"
   xmlns:svg="http://www.w3.org/2000/svg">
  <sodipodi:namedview
     id="namedview7"
     pagecolor="#ffffff"
     bordercolor="#666666"
     borderopacity="1.0"
     inkscape:pageshadow="2"
     inkscape:pageopacity="0.0"
     inkscape:pagecheckerboard="0"
     inkscape:document-units="px"
     showgrid="false"
     inkscape:zoom="18.384776"
     inkscape:cx="12.863904"
     inkscape:cy="16.345045"
     inkscape:window-width="1920"
     inkscape:window-height="1017"
     inkscape:window-x="-8"
     inkscape:window-y="-8"
     inkscape:window-maximized="1"
     inkscape:current-layer="g361"
     showguides="true"
     inkscape:guide-bbox="true">
    <sodipodi:guide
       position="-2.6153846,31.153846"
       orientation="0,-1"
       id="guide188" />
    <sodipodi:guide
       position="4.7692308,18.307692"
       orientation="1,0"
       id="guide190" />
    <sodipodi:guide
       position="26.384615,22.384615"
       orientation="1,0"
       id="guide192" />
    <sodipodi:guide
       position="22.692308,0.76923079"
       orientation="0,-1"
       id="guide194" />
  </sodipodi:namedview>
  <defs
     id="defs2" />
  <g
     inkscape:label="Calque 1"
     inkscape:groupmode="layer"
     id="layer1">
    <g
       id="g361"
       transform="matrix(0.18631865,0,0,0.18631865,-27.331052,-4.6915798)">
      <path
         class="st0"
         d="m 189.64363,77.053081 c -2.50379,0.312975 -4.45987,0.938921 -6.72893,2.034328 -3.67743,1.877841 -6.49419,4.694602 -8.37204,8.372041 -0.93892,1.877843 -1.40839,3.051493 -1.7996,5.007578 -0.31297,1.330134 -0.31297,3.364452 -0.31297,42.251412 0,38.88695 0,40.92127 0.31297,42.25143 0.39121,1.95607 0.86068,3.12972 1.7996,5.00757 1.87785,3.67743 4.69461,6.4942 8.37204,8.37203 1.87784,0.93892 3.0515,1.40839 5.00758,1.7996 1.33013,0.31298 3.36446,0.31298 42.25142,0.31298 38.88695,0 40.92127,0 42.25143,-0.31298 1.95607,-0.39121 3.12972,-0.86068 5.00757,-1.7996 3.67743,-1.87783 6.4942,-4.6946 8.37203,-8.37203 0.93892,-1.87785 1.4084,-3.0515 1.7996,-5.00757 0.31298,-1.33016 0.31298,-3.36448 0.31298,-42.25143 0,-38.88696 0,-40.921278 -0.31298,-42.251412 -0.3912,-1.956085 -0.86068,-3.129735 -1.7996,-5.007578 -2.66026,-5.164064 -7.27663,-8.685015 -13.14489,-10.171638 -1.17365,-0.312974 -3.28621,-0.312974 -41.86019,-0.312974 -22.3776,0 -40.84303,0.07824 -41.15602,0.07824 z m 52.03186,25.350859 c 7.82433,1.48662 12.44068,5.00757 14.16204,10.87583 0.86067,2.97324 0.93891,7.12014 0.15649,9.93688 -0.31298,1.25192 -1.33014,3.36448 -2.03433,4.38164 -1.33014,1.87784 -3.59921,3.75568 -5.94651,4.92933 -0.54769,0.31297 -1.01715,0.54771 -1.01715,0.62595 0,0.0782 0.3912,0.23473 0.86067,0.31297 0.46947,0.0782 1.40838,0.39122 2.11257,0.70419 6.10299,2.42555 9.62393,8.2938 9.62393,16.35286 0,4.69461 -1.48662,8.91975 -4.22513,11.81477 -3.12973,3.36445 -7.43313,5.39879 -13.77084,6.57242 -1.40838,0.23474 -3.4427,0.31298 -19.63908,0.31298 l -18.15247,0.0782 v -67.36752 l 18.30894,0.0782 c 15.72693,0.15648 18.38721,0.15648 19.56087,0.39122 z m -26.05507,18.54366 v 9.31097 l 10.7976,-0.0782 c 9.46745,-0.0782 10.87582,-0.0782 11.65826,-0.31295 2.58203,-0.78245 4.77286,-2.42556 5.71177,-4.45989 0.70418,-1.48661 0.93892,-2.50378 0.93892,-4.69459 0,-4.14691 -1.2519,-6.57244 -3.99041,-7.90259 -2.3473,-1.09541 -2.3473,-1.09541 -14.2403,-1.17364 l -10.87584,-0.0782 z m 0,28.32412 v 10.56284 l 11.73651,-0.0782 c 11.50178,-0.0782 11.81475,-0.0782 13.06665,-0.39121 1.87784,-0.54769 3.20798,-1.25188 4.45988,-2.58202 2.03431,-1.95609 2.73852,-4.1469 2.73852,-7.58963 0,-3.4427 -0.86069,-5.63351 -2.81677,-7.58959 -1.33014,-1.25191 -2.58202,-1.87784 -4.61636,-2.42555 -1.33014,-0.31297 -1.72136,-0.39122 -12.98839,-0.39122 l -11.58004,-0.0782 z"
         id="path350"
         style="stroke-width:0.782434" />
      <path
         id="Shape"
         class="st0"
         d="m 168.74456,42.967152 c 0.0949,-0.03163 0.18977,-0.06325 0.28466,-0.06325 3.54237,0 7.05313,0 10.59551,0.06325 1.20188,0.03163 2.30887,0.442798 3.28936,1.170251 2.2456,1.644676 2.467,6.294049 -0.63258,7.970353 -0.15814,0.09489 -0.31628,0.158142 -0.53767,0.284656 0.60093,0.284655 1.17025,0.474425 1.64467,0.79071 1.86607,1.265134 2.62515,4.080061 1.77118,6.547075 -0.72746,2.150731 -2.46701,3.067953 -4.4596,3.542379 -0.66419,0.158142 -1.36002,0.221399 -2.02422,0.253027 -3.28934,0.03163 -6.61033,0 -9.93131,0 0,-6.831731 0,-13.69509 0,-20.558451 z m 3.51075,17.553754 c 2.46702,0 4.83915,0.06326 7.21128,-0.03163 1.48653,-0.06325 2.5619,-1.676303 2.49864,-3.257723 -0.0949,-1.581419 -1.04374,-2.909812 -2.49864,-2.973069 -2.37213,-0.126514 -4.71264,-0.09489 -7.08476,-0.09489 -0.0317,0 -0.0632,0.06325 -0.12652,0.09489 z m 0.0317,-9.045718 c 2.18236,0 4.30146,0.09489 6.42057,-0.03163 1.54979,-0.09489 2.43538,-1.328391 2.37213,-3.067953 -0.0632,-1.518163 -0.94886,-2.435386 -2.53027,-2.498643 -1.99259,-0.06326 -3.98518,-0.03163 -6.0094,-0.03163 -0.0949,0 -0.15814,0.03163 -0.25303,0.06325 z m 109.3077,-2.814925 h 2.94145 v 1.613048 c 0.31628,-0.253028 0.72745,-0.537683 1.10699,-0.853967 2.24562,-1.960961 7.59081,-1.739562 9.42526,2.245614 1.58142,3.415867 1.51817,6.863361 -0.63257,10.026199 -1.17025,1.77119 -3.0047,2.403757 -5.06054,2.277244 -1.80283,-0.09489 -3.38424,-0.664196 -4.61775,-2.372128 V 69.0922 h -3.16284 c 0,-6.831732 0,-13.631835 0,-20.431937 z m 2.97307,7.527555 c 0.12652,0.759081 0.18977,1.518163 0.41117,2.245616 0.4428,1.613047 1.83445,2.814926 3.28935,2.941439 1.92934,0.126514 3.32098,-0.600939 4.01681,-2.3405 0.8856,-2.213987 0.85397,-4.459603 -0.4428,-6.515448 -1.51816,-2.435385 -5.18706,-2.245614 -6.48382,0.316284 -0.53768,1.043737 -0.79071,2.15073 -0.79071,3.352609 z m -5.06054,5.218683 c 0,0.600941 0.0317,1.233507 0,1.866075 0,0.158142 -0.18977,0.411169 -0.31628,0.411169 -0.91723,0.06325 -1.83445,0.221399 -2.75167,0.126514 -0.79072,-0.09489 -1.23352,-0.79071 -1.48654,-1.581419 -1.89769,1.581419 -4.08006,1.897703 -6.38892,1.613047 -1.92934,-0.253026 -3.54239,-1.866075 -3.6689,-3.668892 -0.18977,-2.467014 0.72745,-4.080062 2.90981,-4.681001 1.51817,-0.411169 3.13121,-0.569311 4.68101,-0.853967 0.37953,-0.06325 0.75907,-0.126513 1.1386,-0.221399 0.72746,-0.18977 1.23351,-0.600939 1.26514,-1.423277 0.0632,-0.853967 -0.28466,-1.518163 -1.04373,-1.834446 -1.32839,-0.537683 -2.72004,-0.537683 -4.04843,0.09489 -0.60094,0.284656 -0.94885,0.853967 -1.26514,1.866076 h -3.09958 c 0,-1.20188 0.41117,-2.213989 1.20188,-3.067955 1.04373,-1.138621 2.40376,-1.58142 3.85867,-1.707932 1.51815,-0.158143 3.03631,-0.158143 4.52285,0.347912 1.99259,0.695825 2.94143,2.024216 2.94143,4.174947 0,2.277244 0,4.554487 0,6.831731 -0.0317,1.58142 -0.0317,1.58142 1.5498,1.707933 z m -4.80752,-5.123797 c -0.98048,0.15814 -1.86606,0.316282 -2.75166,0.506053 -0.91722,0.18977 -1.86607,0.379541 -2.75167,0.695824 -0.85397,0.316285 -1.17025,1.138623 -1.13862,2.024217 0.0317,0.853967 0.60094,1.328393 1.32839,1.58142 1.26514,0.442797 2.53028,0.379541 3.70053,-0.18977 0.85395,-0.41117 1.51814,-1.075365 1.58141,-2.087473 0.0949,-0.853967 0.0317,-1.707934 0.0317,-2.530271 z m -79.73515,-8.06524 c 4.87076,-0.06325 7.71732,3.574008 7.40104,8.508036 -0.0949,1.707934 -0.56931,3.320981 -1.67631,4.681001 -1.20187,1.454905 -2.72004,2.245616 -4.58612,2.435386 -1.54978,0.189771 -3.03632,0.06325 -4.4596,-0.600939 -2.1191,-0.98048 -3.3526,-2.688412 -3.85866,-4.997284 -0.34791,-1.58142 -0.34791,-3.131211 0.0633,-4.681003 0.8856,-3.384236 3.47913,-5.313568 7.11639,-5.345197 z m -4.23822,7.907098 c 0.12652,0.727452 0.18978,1.454905 0.37955,2.182358 0.50606,1.802818 1.8977,2.973069 3.47912,3.067953 1.96096,0.09489 3.32099,-0.759081 4.08006,-2.593527 0.72746,-1.834447 0.72746,-3.668893 -0.0632,-5.47171 -1.17025,-2.656786 -4.30147,-3.35261 -6.32569,-1.360022 -1.17025,1.075366 -1.4549,2.5619 -1.54979,4.174948 z m 21.09615,-7.907098 c 4.39634,0 7.3694,3.004697 7.43266,7.495928 0.0317,1.897703 -0.28465,3.700521 -1.36001,5.281941 -1.5498,2.277243 -3.79542,3.067953 -6.38893,2.941439 -0.94886,-0.03163 -1.96097,-0.253027 -2.84656,-0.632567 -2.08747,-0.822339 -3.35261,-2.498643 -3.8903,-4.681001 -0.47442,-1.929332 -0.44279,-3.858663 0.18977,-5.756367 0.91723,-2.909811 3.54239,-4.649373 6.86337,-4.649373 z m 4.20657,7.495928 c -0.0632,-0.411169 -0.12652,-1.17025 -0.34792,-1.897703 -0.53768,-1.834447 -1.96096,-2.973068 -3.73213,-3.036326 -1.67631,-0.06325 -3.19447,0.917224 -3.82705,2.688414 -0.75908,2.087473 -0.69582,4.143318 0.4428,6.07265 1.20189,2.024217 3.92192,2.467015 5.72474,0.948851 1.36001,-1.138622 1.6763,-2.720041 1.73956,-4.775886 z m 27.10553,-2.909811 c -1.01211,0 -1.96096,0 -2.94144,0 -0.12652,0 -0.31628,-0.126514 -0.34791,-0.221398 -0.53768,-1.549792 -1.83445,-1.739562 -3.16284,-1.739562 -0.53769,0 -1.13862,0.126513 -1.64467,0.347912 -1.107,0.474425 -1.20189,1.739562 -0.18978,2.3405 0.69583,0.411169 1.54979,0.632569 2.3405,0.885595 1.13862,0.316284 2.30887,0.537683 3.4475,0.853967 2.87817,0.885595 4.0168,3.827035 2.40376,6.26242 -0.75908,1.17025 -1.92934,1.802818 -3.25773,2.119102 -1.96096,0.474426 -3.92192,0.506054 -5.81963,-0.18977 -2.05584,-0.759082 -3.1312,-2.277244 -3.28934,-4.554488 h 3.1312 c 0.8856,2.37213 3.41588,3.289353 5.75638,2.087474 0.53767,-0.284655 0.91722,-0.664197 0.94884,-1.328393 0.0317,-0.695823 -0.22139,-1.296764 -0.85397,-1.54979 -1.10698,-0.411169 -2.24561,-0.695825 -3.38423,-1.043737 -0.94885,-0.284656 -1.8977,-0.474427 -2.7833,-0.853966 -1.73956,-0.695825 -2.49864,-1.897704 -2.49864,-3.763778 0,-1.613048 0.91722,-2.973069 2.56189,-3.574008 2.24563,-0.822339 4.5545,-0.948853 6.80011,-0.03163 1.51817,0.600939 2.43539,1.802817 2.81493,3.415866 0,0.126513 -0.0317,0.284654 -0.0317,0.537682 z m -16.98445,-4.206576 h 2.90981 v 2.403758 h -2.84655 c -0.0317,0.284655 -0.0317,0.506054 -0.0317,0.695824 0,2.435385 0,4.870771 0,7.306158 0,0.316283 0.0317,0.664195 0.0632,0.980479 0.0633,0.632568 0.41117,1.012109 1.04374,1.075366 0.56931,0.03163 1.17025,0 1.80282,0 v 2.403757 c -1.32839,0.347912 -2.65679,0.316284 -3.95356,0.03163 -1.51815,-0.347913 -2.11909,-1.423277 -2.15072,-3.415866 -0.0317,-2.75167 0,-5.471711 0,-8.22338 v -0.79071 h -2.40376 v -2.435386 h 2.37213 v -4.459602 h 3.25773 c -0.0633,1.454905 -0.0633,2.909812 -0.0633,4.427974 z m 27.0739,14.991856 c -1.23351,0 -2.43539,0.03163 -3.60564,0 -1.13862,-0.06326 -2.02422,-0.822339 -2.27725,-1.96096 -0.1265,-0.664197 -0.22139,-1.328393 -0.22139,-1.99259 -0.0317,-2.561898 0,-5.155426 0,-7.717325 v -0.822339 h -2.40376 v -2.403756 h 2.37214 V 44.20066 h 3.25772 v 4.427973 h 2.87818 v 2.435386 h -2.75167 c -0.0317,0.221399 -0.0632,0.379541 -0.0632,0.506055 0,2.625156 0,5.250312 0,7.875467 0,1.39165 0.37954,1.707934 1.70793,1.707934 0.34792,0 0.72745,0 1.13862,0 z m 5.40845,-14.928598 v 2.53027 c 1.23352,-2.15073 2.97308,-3.289353 5.53497,-2.909812 v 3.13121 c -1.20187,-0.18977 -2.37212,-0.221398 -3.41586,0.537683 -1.36003,0.980481 -1.83445,2.467014 -1.86608,4.048434 -0.0632,2.467014 0,4.965656 0,7.495927 h -3.19446 V 48.628633 c 0.94884,0.03163 1.8977,0.03163 2.94143,0.03163 z"
         style="stroke-width:0.316284" />
    </g>
  </g>
  <style
     type="text/css"
     id="style348">
	.st0{fill:#563D7C;}
</style>
</svg>
