<?xml version="1.0" encoding="UTF-8" standalone="no"?>
<!-- Created with Inkscape (http://www.inkscape.org/) -->

<svg
   width="32"
   height="32"
   viewBox="0 0 32 32"
   version="1.1"
   id="svg5"
   inkscape:version="1.1.1 (3bf5ae0d25, 2021-09-20)"
   sodipodi:docname="GITF.svg"
   xmlns:inkscape="http://www.inkscape.org/namespaces/inkscape"
   xmlns:sodipodi="http://sodipodi.sourceforge.net/DTD/sodipodi-0.dtd"
   xmlns="http://www.w3.org/2000/svg"
   xmlns:svg="http://www.w3.org/2000/svg">
  <sodipodi:namedview
     id="namedview7"
     pagecolor="#ffffff"
     bordercolor="#666666"
     borderopacity="1.0"
     inkscape:pageshadow="2"
     inkscape:pageopacity="0.0"
     inkscape:pagecheckerboard="0"
     inkscape:document-units="px"
     showgrid="false"
     inkscape:zoom="18.384776"
     inkscape:cx="16.780188"
     inkscape:cy="15.882706"
     inkscape:window-width="1294"
     inkscape:window-height="1040"
     inkscape:window-x="170"
     inkscape:window-y="35"
     inkscape:window-maximized="0"
     inkscape:current-layer="g12"
     showguides="true"
     inkscape:guide-bbox="true">
    <sodipodi:guide
       position="-2.6153846,31.153846"
       orientation="0,-1"
       id="guide188" />
    <sodipodi:guide
       position="4.7692308,18.307692"
       orientation="1,0"
       id="guide190" />
    <sodipodi:guide
       position="26.384615,22.384615"
       orientation="1,0"
       id="guide192" />
    <sodipodi:guide
       position="22.692308,0.76923079"
       orientation="0,-1"
       id="guide194" />
  </sodipodi:namedview>
  <defs
     id="defs2" />
  <g
     inkscape:label="Calque 1"
     inkscape:groupmode="layer"
     id="layer1">
    <g
       id="g361"
       transform="matrix(0.18631865,0,0,0.18631865,-27.331052,-4.6915798)">
      <g
         id="g12"
         transform="matrix(0.1530693,0,0,-0.1530693,7.6833651,308.69978)">
        <path
           d="m 1341.6318,1715.4341 c -14.4857,0 -25.2743,-7.113 -25.2743,-24.2314 0,-12.8983 7.1097,-21.8518 24.4937,-21.8518 14.7339,0 24.7419,8.6815 24.7419,22.3845 0,15.5289 -8.9552,23.6987 -23.9613,23.6987 z m -28.9623,-120.8711 c -3.4278,-4.2072 -6.8435,-8.677 -6.8435,-13.9523 0,-10.5242 13.4207,-13.6913 31.8576,-13.6913 15.2723,0 36.0751,1.0695 36.0751,15.2687 0,8.4394 -10.0081,8.9619 -22.6543,9.7549 z m 77.9378,120.0757 c 4.7317,-6.0577 9.7418,-14.485 9.7418,-26.5964 0,-29.2258 -22.9085,-46.3385 -56.0761,-46.3385 -8.4349,0 -16.071,1.0507 -20.8058,2.365 l -8.692,-13.9527 25.8007,-1.5762 c 45.5568,-2.9026 72.4043,-4.2217 72.4043,-39.2279 0,-30.2871 -26.5874,-47.3937 -72.4043,-47.3937 -47.6564,0 -65.824,12.1135 -65.824,32.9108 0,11.8536 5.2672,18.1585 14.4827,26.8602 -8.692,3.6741 -11.5844,10.2532 -11.5844,17.3653 0,5.7967 2.8924,11.0615 7.6392,16.0677 4.7379,4.998 10.0021,10.0075 16.3222,15.7985 -12.9004,6.3179 -22.6453,20.0103 -22.6453,39.4983 0,30.2765 20.0132,51.0702 60.2906,51.0702 11.3241,0 18.1736,-1.0422 24.2305,-2.6318 h 51.3474 v -22.3751 l -24.2275,-1.8437"
           style="fill:#f03c2e;fill-opacity:1;fill-rule:nonzero;stroke:none;stroke-width:0.302542"
           id="path14"
           inkscape:connector-curvature="0" />
        <path
           d="m 1461.1569,1762.4842 c -15.0121,0 -23.698,8.6969 -23.698,23.7105 0,14.9949 8.6859,23.1635 23.698,23.1635 15.2723,0 23.9613,-8.1686 23.9613,-23.1635 0,-15.0136 -8.689,-23.7105 -23.9613,-23.7105 z m -33.9724,-158.233 v 20.7905 l 13.4329,1.8375 c 3.688,0.5343 4.2114,1.3179 4.2114,5.277 v 77.4105 c 0,2.8907 -0.7866,4.7414 -3.4278,5.525 l -14.2165,5.007 2.8953,21.3198 h 54.509 v -109.2623 c 0,-4.2205 0.2541,-4.7427 4.2144,-5.277 l 13.4299,-1.8375 v -20.7905 h -75.0486"
           style="fill:#f03c2e;fill-opacity:1;fill-rule:nonzero;stroke:none;stroke-width:0.302542"
           id="path16"
           inkscape:connector-curvature="0" />
        <path
           d="m 1606.3558,1614.4587 c -11.3272,-5.5226 -27.9125,-10.5263 -42.9276,-10.5263 -31.3312,0 -43.1758,12.6263 -43.1758,42.3924 v 68.9807 c 0,1.5766 0,2.6343 -2.1147,2.6343 h -18.4279 v 23.4327 c 23.1778,2.6401 32.3872,14.2277 35.2824,42.9264 h 25.0172 v -37.4017 c 0,-1.8364 0,-2.6318 2.1088,-2.6318 h 37.1218 v -26.3256 h -39.2306 v -62.9254 c 0,-15.537 3.691,-21.5878 17.9014,-21.5878 7.382,0 15.0091,1.8376 21.3292,4.2095 l 7.1158,-23.1774"
           style="fill:#f03c2e;fill-opacity:1;fill-rule:nonzero;stroke:none;stroke-width:0.302542"
           id="path18"
           inkscape:connector-curvature="0" />
        <path
           d="m 1826.3238,1173.5573 -335.6467,335.6283 c -19.3137,19.3307 -50.6635,19.3307 -70.0042,0 l -69.6947,-69.7017 88.4094,-88.4142 c 20.5528,6.9392 44.1108,2.2867 60.4859,-14.092 16.4601,-16.4807 21.0798,-40.2398 13.966,-60.862 l 85.2102,-85.2082 c 20.6151,7.1038 44.4,2.5144 60.861,-13.9764 23.014,-23.0075 23.014,-60.2885 0,-83.3036 -23.0173,-23.0209 -60.2976,-23.0209 -83.325,0 -17.3045,17.3184 -21.5843,42.7442 -12.8199,64.0656 l -79.467,79.4708 -0.011,-209.1226 c 5.6107,-2.7776 10.9059,-6.4847 15.5813,-11.1399 23.0072,-23.00503 23.0072,-60.27916 0,-83.32046 -23.0139,-23.00418 -60.3111,-23.00418 -83.3022,0 -23.0107,23.0413 -23.0107,60.31543 0,83.32046 5.6866,5.6767 12.2664,9.9734 19.2874,12.853 v 211.0634 c -7.021,2.8705 -13.5908,7.1367 -19.2874,12.8538 -17.4294,17.4161 -21.6273,42.9971 -12.6883,64.4004 l -87.1502,87.1684 -230.1408,-230.1312 c -19.3372,-19.3469 -19.3372,-50.6973 0,-70.0314 l 335.6432,-335.62884 c 19.3237,-19.3308 50.6634,-19.3308 70.0143,0 l 334.0744,334.07334 c 19.3305,19.3411 19.3305,50.7006 0,70.035"
           style="fill:#f03c2e;fill-opacity:1;fill-rule:nonzero;stroke:none;stroke-width:0.843472"
           id="path20"
           inkscape:connector-curvature="0" />
      </g>
    </g>
  </g>
  <style
     type="text/css"
     id="style348">
	.st0{fill:#563D7C;}
</style>
</svg>
