<?xml version="1.0" encoding="UTF-8" standalone="no"?>
<!-- Created with Inkscape (http://www.inkscape.org/) -->

<svg
   width="32"
   height="32"
   viewBox="0 0 32 32"
   version="1.1"
   id="svg5"
   inkscape:version="1.1.1 (3bf5ae0d25, 2021-09-20)"
   sodipodi:docname="JAVAF.svg"
   xmlns:inkscape="http://www.inkscape.org/namespaces/inkscape"
   xmlns:sodipodi="http://sodipodi.sourceforge.net/DTD/sodipodi-0.dtd"
   xmlns="http://www.w3.org/2000/svg"
   xmlns:svg="http://www.w3.org/2000/svg">
  <sodipodi:namedview
     id="namedview7"
     pagecolor="#ffffff"
     bordercolor="#666666"
     borderopacity="1.0"
     inkscape:pageshadow="2"
     inkscape:pageopacity="0.0"
     inkscape:pagecheckerboard="0"
     inkscape:document-units="px"
     showgrid="false"
     inkscape:zoom="18.384776"
     inkscape:cx="15.529153"
     inkscape:cy="18.683937"
     inkscape:window-width="1920"
     inkscape:window-height="1017"
     inkscape:window-x="-8"
     inkscape:window-y="-8"
     inkscape:window-maximized="1"
     inkscape:current-layer="g31015"
     showguides="true"
     inkscape:guide-bbox="true">
    <sodipodi:guide
       position="-2.6153846,31.153846"
       orientation="0,-1"
       id="guide188" />
    <sodipodi:guide
       position="4.7692308,18.307692"
       orientation="1,0"
       id="guide190" />
    <sodipodi:guide
       position="26.384615,22.384615"
       orientation="1,0"
       id="guide192" />
    <sodipodi:guide
       position="22.692308,0.76923079"
       orientation="0,-1"
       id="guide194" />
  </sodipodi:namedview>
  <defs
     id="defs2" />
  <g
     inkscape:label="Calque 1"
     inkscape:groupmode="layer"
     id="layer1">
    <g
       id="g361"
       transform="matrix(0.18631865,0,0,0.18631865,-27.331052,-4.6915798)">
      <g
         id="g12"
         transform="matrix(0.1530693,0,0,-0.1530693,7.6833651,308.69978)">
        <g
           style="overflow:visible"
           id="g31036"
           transform="matrix(1.6743792,0,0,-1.6743792,-202.07534,3224.2995)">
          <g
             id="g31015">
	
	
	
	
	
	
	
	<g
   id="g31206"
   transform="matrix(1.1161219,0,0,1.1161219,958.11863,992.06965)">
  <path
     fill-rule="evenodd"
     clip-rule="evenodd"
     fill="#0074bd"
     d="m -43.935224,330.26165 c 0,0 -17.265,10.049 12.301,13.44 35.8239998,4.09 54.13,3.501 93.596,-3.959 0,0 10.397,6.504 24.892,12.137 -88.5010002,37.917 -200.295996,-2.197 -130.789,-21.618 z"
     id="path30989" />
  <path
     fill-rule="evenodd"
     clip-rule="evenodd"
     fill="#0074bd"
     d="m -54.755224,280.77365 c 0,0 -19.367,14.339 10.221,17.397 38.2709998,3.951 68.483,4.275 120.792,-5.792 0,0 7.218,7.332 18.585,11.339 -106.986,31.294 -226.146996,2.462 -149.598,-22.944 z"
     id="path30991" />
  <path
     fill-rule="evenodd"
     clip-rule="evenodd"
     fill="#ea2d2e"
     d="m 36.407776,196.81465 c 21.818,25.115 -5.721,47.697 -5.721,47.697 0,0 55.367,-28.577 29.945,-64.38 -23.752,-33.373 -41.962,-49.951 56.623004,-107.123997 0.001,0 -154.754004,38.640997 -80.847004,123.806997 z"
     id="path30993" />
  <path
     fill-rule="evenodd"
     clip-rule="evenodd"
     fill="#0074bd"
     d="m 153.45578,366.87165 c 0,0 12.781,10.536 -14.077,18.684 -51.071004,15.469 -212.604004,20.135 -257.47,0.619 -16.117,-7.02 14.121,-16.75 23.634996,-18.805 9.92,-2.146 15.584,-1.754 15.584,-1.754 -17.937,-12.631 -115.934996,24.807 -49.771996,35.544 180.428996,29.246 328.895,-13.173 282.1,-34.288 z"
     id="path30995" />
  <path
     fill-rule="evenodd"
     clip-rule="evenodd"
     fill="#0074bd"
     d="m -35.626224,229.49165 c 0,0 -82.154996,19.519 -29.092,26.613 22.412,2.999 67.0629998,2.309 108.685,-1.183 34.006,-2.854 68.133004,-8.958 68.133004,-8.958 0,0 -11.982,5.14 -20.657004,11.06 -83.4440002,21.947 -244.611996,11.726 -198.206996,-10.712 39.226996,-18.977 71.137996,-16.82 71.137996,-16.82 z"
     id="path30997" />
  <path
     fill-rule="evenodd"
     clip-rule="evenodd"
     fill="#0074bd"
     d="m 111.75978,311.86765 c 84.818,-44.063 45.597,-86.412 18.223,-80.708 -6.694,1.397 -9.697,2.607 -9.697,2.607 0,0 2.494,-3.907 7.243,-5.588 54.155,-19.03 95.794,56.146 -17.464,85.919 -0.001,0 1.302,-1.18 1.695,-2.23 z"
     id="path30999" />
  <path
     fill-rule="evenodd"
     clip-rule="evenodd"
     fill="#ea2d2e"
     d="m 60.632776,-19.330347 c 0,0 46.963004,46.99 -44.557,119.227 -73.393,57.968997 -16.73400021,91.008997 -0.026,128.777997 -42.845,-38.653 -74.271,-72.684 -53.192,-104.352 30.9539998,-46.478997 116.719,-69.020997 97.775,-143.652997 z"
     id="path31001" />
  <path
     fill-rule="evenodd"
     clip-rule="evenodd"
     fill="#0074bd"
     d="m -27.287224,431.30665 c 81.397,5.204 206.426004,-2.896 209.385004,-41.415 0,0 -5.688,14.602 -67.276,26.188 -69.481004,13.081 -155.197004,11.558 -206.016004,3.167 0,0 10.411,8.617 63.907,12.06 z"
     id="path31003" />
</g>

	
	
	
	
	<g
   id="g31213"
   transform="matrix(0.81406593,0,0,0.81406593,193.07191,155.6584)">
  <path
     fill-rule="evenodd"
     clip-rule="evenodd"
     fill="#ea2d2e"
     d="m 1121.9304,875.48786 h -2.479 v -1.385 h 6.676 v 1.385 h -2.469 v 6.928 h -1.729 v -6.928 z m 13.33,0.351 h -0.032 l -2.461,6.576 h -1.132 l -2.446,-6.576 h -0.025 v 6.576 h -1.638 v -8.313 h 2.402 l 2.264,5.885 2.271,-5.885 h 2.388 v 8.313 h -1.59 v -6.576 z"
     id="path31005" />
  <path
     fill-rule="evenodd"
     clip-rule="evenodd"
     fill="#ea2d2e"
     d="m 902.9654,953.58486 c -7.676,6.65402 -15.793,10.39602 -23.079,10.39602 -10.378,0 -16.007,-6.23602 -16.007,-16.21602 0,-10.803 6.027,-18.71 30.163,-18.71 h 8.923 z m 21.18896,23.90302 v -73.99602 c 0,-18.915 -10.78696,-31.396 -36.78196,-31.396 -15.168,0 -28.467,3.75 -39.278,8.525 l 3.111,13.106 c 8.515,-3.127 19.526,-6.031 30.337,-6.031 14.978,0 21.423,6.031 21.423,18.505 v 9.356 h -7.485 c -36.383,0 -52.798,14.11 -52.798,35.336 0,18.28502 10.819,28.68202 31.185,28.68202 13.088,0 22.87,-5.405 32.001,-13.315 l 1.663,11.228 z"
     id="path31007" />
  <path
     fill-rule="evenodd"
     clip-rule="evenodd"
     fill="#ea2d2e"
     d="m 994.86638,977.48788 h -26.423 L 936.63636,873.98586 h 23.07702 l 19.743,63.6 4.391,19.109 c 9.965,-27.639 17.03202,-55.701 20.56602,-82.709 h 22.445 c -6.002,34.08 -16.831,71.492 -31.99202,103.50202 z"
     id="path31009" />
  <path
     fill-rule="evenodd"
     clip-rule="evenodd"
     fill="#ea2d2e"
     d="m 1096.2594,953.58486 c -7.701,6.65402 -15.82,10.39602 -23.086,10.39602 -10.382,0 -16.011,-6.23602 -16.011,-16.21602 0,-10.803 6.039,-18.71 30.154,-18.71 h 8.942 v 24.53 z m 21.196,23.90302 v -73.99602 c 0,-18.915 -10.818,-31.396 -36.789,-31.396 -15.188,0 -28.484,3.75 -39.295,8.525 l 3.116,13.106 c 8.519,-3.127 19.545,-6.031 30.355,-6.031 14.96,0 21.416,6.031 21.416,18.505 v 9.356 h -7.485 c -36.391,0 -52.801,14.11 -52.801,35.336 0,18.28502 10.804,28.68202 31.169,28.68202 13.099,0 22.862,-5.405 32.018,-13.315 l 1.674,11.228 z"
     id="path31011" />
  <path
     fill-rule="evenodd"
     clip-rule="evenodd"
     fill="#ea2d2e"
     d="m 819.4454,995.07788 c -6.037,8.82102 -15.8,15.80902 -26.479,19.74902 l -10.462,-12.324 c 8.135,-4.17802 15.103,-10.91202 18.345,-17.18202 2.796,-5.589 3.96,-12.773 3.96,-29.97102 v -118.18 h 22.519 v 116.551 c 0,23.00102 -1.836,32.30002 -7.883,41.35702 z"
     id="path31013" />
</g>

</g>
        </g>
      </g>
    </g>
  </g>
  <style
     type="text/css"
     id="style348">
	.st0{fill:#563D7C;}
</style>
</svg>
