<?xml version="1.0" encoding="UTF-8" standalone="no"?>
<!-- Created with Inkscape (http://www.inkscape.org/) -->

<svg
   width="32"
   height="32"
   viewBox="0 0 32 32"
   version="1.1"
   id="svg5"
   inkscape:version="1.1.1 (3bf5ae0d25, 2021-09-20)"
   sodipodi:docname="UNITYF.svg"
   xmlns:inkscape="http://www.inkscape.org/namespaces/inkscape"
   xmlns:sodipodi="http://sodipodi.sourceforge.net/DTD/sodipodi-0.dtd"
   xmlns="http://www.w3.org/2000/svg"
   xmlns:svg="http://www.w3.org/2000/svg">
  <sodipodi:namedview
     id="namedview7"
     pagecolor="#ffffff"
     bordercolor="#666666"
     borderopacity="1.0"
     inkscape:pageshadow="2"
     inkscape:pageopacity="0.0"
     inkscape:pagecheckerboard="0"
     inkscape:document-units="px"
     showgrid="false"
     inkscape:zoom="6.5"
     inkscape:cx="41"
     inkscape:cy="21.461538"
     inkscape:window-width="1920"
     inkscape:window-height="1017"
     inkscape:window-x="-8"
     inkscape:window-y="-8"
     inkscape:window-maximized="1"
     inkscape:current-layer="g31272"
     showguides="true"
     inkscape:guide-bbox="true">
    <sodipodi:guide
       position="-2.6153846,31.153846"
       orientation="0,-1"
       id="guide188" />
    <sodipodi:guide
       position="4.7692308,18.307692"
       orientation="1,0"
       id="guide190" />
    <sodipodi:guide
       position="26.384615,22.384615"
       orientation="1,0"
       id="guide192" />
    <sodipodi:guide
       position="22.692308,0.76923079"
       orientation="0,-1"
       id="guide194" />
  </sodipodi:namedview>
  <defs
     id="defs2" />
  <g
     inkscape:label="Calque 1"
     inkscape:groupmode="layer"
     id="layer1">
    <g
       id="g361"
       transform="matrix(0.18631865,0,0,0.18631865,-27.331052,-4.6915798)">
      <g
         id="g12"
         transform="matrix(0.1530693,0,0,-0.1530693,7.6833651,308.69978)">
        <g
           style="overflow:visible"
           id="g31036"
           transform="matrix(1.6743792,0,0,-1.6743792,-202.07534,3224.2995)">
          <g
             id="g31015">
	
	
	
	
	
	
	
	
	
	
	
	
	
<g
   id="g31299"
   transform="matrix(18.871177,0,0,18.871177,-4300.7767,444.8492)">
  <g
     id="fond">
</g>
  <g
     id="compacte">
</g>
  <g
     id="rectangle">
</g>
  <g
     id="carré"
     transform="translate(-19.030944)">
	
	<g
   id="g31272">
		
		
	<path
   fill="#110b09"
   d="m 306.60899,49.982594 -4.08469,-6.870772 4.08469,-6.870771 1.96913,6.870771 z m -9.09101,-0.670466 -5.13222,-5.090179 h 8.16941 l 4.08473,6.870773 z m 0,-12.421636 7.10113,-1.780593 -4.08472,6.870775 h -8.16942 z m 10.43172,-5.153022 -9.27979,2.409011 -1.3825,2.36696 -2.78584,-0.021 -6.80793,6.619403 6.80793,6.619405 2.78584,-0.021 1.3825,2.366963 9.27979,2.430032 2.49264,-9.028414 -1.40351,-2.345937 1.40351,-2.34617 z"
   id="path31573"
   style="stroke-width:0.228516"
   sodipodi:nodetypes="cccccccccccccccccccccccccccc" />
<path
   fill="#110b09"
   d="m 296.82256,22.825041 c -0.83438,0 -1.40015,0.353471 -1.82443,1.004098 h -0.0282 v -0.834381 h -1.47081 v 6.137974 h 1.49905 v -3.479158 c 0,-0.834381 0.52333,-1.414343 1.24462,-1.414343 0.67886,0 1.18801,0.410247 1.18801,1.131537 v 3.776158 h 1.4992 v -4.016692 c 0.014,-1.343525 -0.83453,-2.305193 -2.1074,-2.305193 z m -5.60059,3.719537 c 0,0.820341 -0.46672,1.385954 -1.23044,1.385954 -0.6929,0 -1.13138,-0.395899 -1.13138,-1.117188 v -3.818586 h -1.4992 v 4.101393 c 0,1.343527 0.76372,2.22049 2.13563,2.22049 0.86277,0 1.34353,-0.32539 1.75378,-0.891004 h 0.0424 v 0.721289 h 1.44258 v -6.152168 h -1.4992 v 3.54982 z m 8.51414,-3.54982 h 1.49904 v 6.137974 h -1.49904 z m 0,-1.909295 h 1.49904 v 1.230434 h -1.49904 z m 9.99899,1.909295 -0.89101,2.771908 c -0.19795,0.565768 -0.35362,1.343679 -0.35362,1.343679 h -0.0424 c 0,0 -0.19795,-0.777911 -0.3959,-1.343679 l -1.00425,-2.771908 h -1.61229 l 1.65472,4.370161 c 0.35362,0.933432 0.46672,1.329331 0.46672,1.66876 0,0.509146 -0.26862,0.834535 -0.90505,0.834535 h -0.57996 v 1.286903 h 0.96182 c 1.24448,0 1.68296,-0.49495 2.14967,-1.85267 l 2.16387,-6.293649 h -1.61229 z m -5.69965,4.341771 V 24.08371 h 0.96182 v -1.074912 h -0.96182 v -1.923335 h -1.49905 v 1.909295 h -0.84857 v 1.074758 h 0.84857 v 3.606444 c 0,1.159771 0.87681,1.470966 1.66877,1.470966 0.65062,0 0.82034,-0.02839 0.82034,-0.02839 v -1.188004 h -0.38186 c -0.35363,0.01419 -0.6082,-0.141326 -0.6082,-0.594003 z"
   id="path32366"
   style="stroke-width:0.154286"
   sodipodi:nodetypes="sccccccssscccscssccssccccccccccccccccccccccccccssccsccccsccccccccccsscccs" />
</g>

</g>
</g>
</g>
        </g>
      </g>
    </g>
  </g>
  <style
     type="text/css"
     id="style348">
	.st0{fill:#563D7C;}
</style>
</svg>
